<svg width="31" height="30" viewBox="0 0 31 30" fill="none" xmlns="http://www.w3.org/2000/svg">
<g opacity="0.25">
<rect x="1.24658" y="0.5" width="29.2532" height="28.6055" rx="14.3027" stroke="#5B6179"/>
<path d="M14.0979 9.86841C14.202 9.86838 14.3042 9.89633 14.3937 9.94933C14.4833 10.0023 14.557 10.0784 14.607 10.1697L14.6366 10.2335L15.7976 13.136C15.8444 13.2528 15.8519 13.3816 15.8192 13.5031C15.7864 13.6245 15.7151 13.732 15.6159 13.8094L15.5579 13.8489L14.5861 14.4317L14.6227 14.4915C15.0852 15.2258 15.7065 15.8471 16.4408 16.3096L16.5 16.3456L17.0834 15.375C17.1481 15.2671 17.246 15.1831 17.3626 15.1357C17.4791 15.0882 17.6079 15.08 17.7295 15.1121L17.7963 15.1347L20.6988 16.2957C20.7954 16.3343 20.8799 16.3981 20.9435 16.4805C21.007 16.5629 21.0472 16.6609 21.0599 16.7642L21.0639 16.8344V19.1564C21.0639 20.1183 20.2843 20.8979 19.2876 20.8967C14.3075 20.5943 10.3374 16.6243 10.0344 11.6099C10.0344 11.1657 10.2041 10.7383 10.5089 10.4151C10.8136 10.0919 11.2303 9.89737 11.6738 9.87131L11.7759 9.86841H14.0979Z" fill="#5B6179"/>
</g>
</svg>
