<svg width="33" height="29" viewBox="0 0 33 29" fill="none" xmlns="http://www.w3.org/2000/svg">
<path d="M23.1 20.8V24H0V20.8C0 20.8 0 14.4 11.55 14.4C23.1 14.4 23.1 20.8 23.1 20.8ZM17.325 5.60007C17.325 4.49249 16.9863 3.40979 16.3517 2.48888C15.7172 1.56797 14.8152 0.850207 13.76 0.426358C12.7048 0.00250824 11.5436 -0.10839 10.4234 0.107686C9.30311 0.323763 8.27411 0.857109 7.46646 1.64028C6.65881 2.42345 6.1088 3.42127 5.88597 4.50756C5.66314 5.59385 5.7775 6.71982 6.2146 7.74308C6.65169 8.76635 7.39189 9.64094 8.34158 10.2563C9.29128 10.8716 10.4078 11.2 11.55 11.2C13.0816 11.2 14.5505 10.61 15.6335 9.55985C16.7166 8.50965 17.325 7.08527 17.325 5.60007Z" fill="#5B6179"/>
<mask id="path-2-outside-1_1602_12831" maskUnits="userSpaceOnUse" x="13.1716" y="11.9502" width="18.3848" height="18.3848" fill="black">
<rect fill="white" x="13.1716" y="11.9502" width="18.3848" height="18.3848"/>
<path fillRule="evenodd" clipRule="evenodd" d="M22.9732 21.9659L27.1082 21.9636C27.3276 21.9634 27.5381 21.8762 27.6933 21.7209C27.8486 21.5657 27.9358 21.3552 27.936 21.1358C27.9361 20.9164 27.849 20.706 27.694 20.5509C27.5389 20.3959 27.3285 20.3088 27.1091 20.3089L22.9733 20.3121L22.9761 16.1767C22.9761 16.0681 22.9548 15.9605 22.9132 15.8602C22.8717 15.7599 22.8108 15.6687 22.734 15.592C22.6572 15.5153 22.5661 15.4544 22.4657 15.4129C22.3654 15.3714 22.2579 15.3501 22.1492 15.3502C22.0406 15.3503 21.9331 15.3718 21.8327 15.4134C21.7323 15.4551 21.6411 15.5161 21.5643 15.5929C21.4875 15.6698 21.4265 15.761 21.3849 15.8614C21.3433 15.9618 21.3219 16.0694 21.3218 16.178L21.3199 20.3126L17.1849 20.315C17.0751 20.3131 16.9659 20.3331 16.8639 20.3738C16.7619 20.4145 16.6689 20.4751 16.5905 20.5521C16.5121 20.6291 16.4498 20.7209 16.4072 20.8222C16.3647 20.9235 16.3427 21.0322 16.3426 21.142C16.3425 21.2518 16.3642 21.3605 16.4066 21.4618C16.4489 21.5631 16.5111 21.6549 16.5893 21.7318C16.6675 21.8088 16.7604 21.8694 16.8623 21.9101C16.9643 21.9508 17.0733 21.9708 17.1831 21.9688L21.3193 21.9661L21.317 26.1019C21.315 26.2117 21.335 26.3207 21.3757 26.4227C21.4164 26.5247 21.477 26.6175 21.554 26.6957C21.6309 26.774 21.7227 26.8361 21.824 26.8784C21.9253 26.9208 22.034 26.9425 22.1438 26.9424C22.2536 26.9423 22.3623 26.9203 22.4636 26.8778C22.5649 26.8352 22.6567 26.7729 22.7337 26.6945C22.8107 26.6161 22.8713 26.5231 22.912 26.4211C22.9527 26.3191 22.9727 26.21 22.9708 26.1002L22.9736 21.9663L22.9732 21.9659Z"/>
</mask>
<path fillRule="evenodd" clipRule="evenodd" d="M22.9732 21.9659L27.1082 21.9636C27.3276 21.9634 27.5381 21.8762 27.6933 21.7209C27.8486 21.5657 27.9358 21.3552 27.936 21.1358C27.9361 20.9164 27.849 20.706 27.694 20.5509C27.5389 20.3959 27.3285 20.3088 27.1091 20.3089L22.9733 20.3121L22.9761 16.1767C22.9761 16.0681 22.9548 15.9605 22.9132 15.8602C22.8717 15.7599 22.8108 15.6687 22.734 15.592C22.6572 15.5153 22.5661 15.4544 22.4657 15.4129C22.3654 15.3714 22.2579 15.3501 22.1492 15.3502C22.0406 15.3503 21.9331 15.3718 21.8327 15.4134C21.7323 15.4551 21.6411 15.5161 21.5643 15.5929C21.4875 15.6698 21.4265 15.761 21.3849 15.8614C21.3433 15.9618 21.3219 16.0694 21.3218 16.178L21.3199 20.3126L17.1849 20.315C17.0751 20.3131 16.9659 20.3331 16.8639 20.3738C16.7619 20.4145 16.6689 20.4751 16.5905 20.5521C16.5121 20.6291 16.4498 20.7209 16.4072 20.8222C16.3647 20.9235 16.3427 21.0322 16.3426 21.142C16.3425 21.2518 16.3642 21.3605 16.4066 21.4618C16.4489 21.5631 16.5111 21.6549 16.5893 21.7318C16.6675 21.8088 16.7604 21.8694 16.8623 21.9101C16.9643 21.9508 17.0733 21.9708 17.1831 21.9688L21.3193 21.9661L21.317 26.1019C21.315 26.2117 21.335 26.3207 21.3757 26.4227C21.4164 26.5247 21.477 26.6175 21.554 26.6957C21.6309 26.774 21.7227 26.8361 21.824 26.8784C21.9253 26.9208 22.034 26.9425 22.1438 26.9424C22.2536 26.9423 22.3623 26.9203 22.4636 26.8778C22.5649 26.8352 22.6567 26.7729 22.7337 26.6945C22.8107 26.6161 22.8713 26.5231 22.912 26.4211C22.9527 26.3191 22.9727 26.21 22.9708 26.1002L22.9736 21.9663L22.9732 21.9659Z" fill="#5B6179"/>
<path d="M22.9732 21.9659L22.972 19.9659L18.1475 19.9687L21.5589 23.3801L22.9732 21.9659ZM27.6933 21.7209L29.1075 23.1351L27.6933 21.7209ZM27.694 20.5509L29.1082 19.1367L27.694 20.5509ZM27.1091 20.3089L27.108 18.3089L27.1076 18.3089L27.1091 20.3089ZM22.9733 20.3121L20.9733 20.3107L20.972 22.3136L22.9748 22.3121L22.9733 20.3121ZM22.9761 16.1767L24.9761 16.178L24.9761 16.1773L22.9761 16.1767ZM21.3218 16.178L23.3218 16.179L23.3218 16.1787L21.3218 16.178ZM21.3199 20.3126L21.321 22.3126L23.3189 22.3115L23.3199 20.3136L21.3199 20.3126ZM17.1849 20.315L17.1503 22.3147L17.1681 22.315L17.186 22.315L17.1849 20.315ZM17.1831 21.9688L17.1818 19.9688L17.165 19.9688L17.1482 19.9691L17.1831 21.9688ZM21.3193 21.9661L23.3193 21.9672L23.3205 19.9648L21.318 19.9661L21.3193 21.9661ZM21.317 26.1019L23.3167 26.1368L23.3169 26.1199L23.317 26.103L21.317 26.1019ZM22.9708 26.1002L20.9708 26.0988L20.9708 26.1168L20.9711 26.1347L22.9708 26.1002ZM22.9736 21.9663L24.9736 21.9676L24.9741 21.1384L24.3878 20.5521L22.9736 21.9663ZM22.9743 23.9659L27.1093 23.9636L27.107 19.9636L22.972 19.9659L22.9743 23.9659ZM27.1093 23.9636C27.8591 23.9631 28.5777 23.6649 29.1075 23.1351L26.2791 20.3067C26.4984 20.0874 26.7961 19.9637 27.107 19.9636L27.1093 23.9636ZM29.1075 23.1351C29.6373 22.6053 29.9355 21.8867 29.936 21.1369L25.936 21.1346C25.9361 20.8237 26.0598 20.526 26.2791 20.3067L29.1075 23.1351ZM29.936 21.1369C29.9364 20.387 29.6389 19.6674 29.1082 19.1367L26.2798 21.9651C26.0592 21.7446 25.9358 21.4457 25.936 21.1346L29.936 21.1369ZM29.1082 19.1367C28.5775 18.606 27.8579 18.3085 27.108 18.3089L27.1103 22.3089C26.7992 22.3091 26.5003 22.1857 26.2798 21.9651L29.1082 19.1367ZM27.1076 18.3089L22.9718 18.3121L22.9748 22.3121L27.1106 22.3089L27.1076 18.3089ZM24.9733 20.3134L24.9761 16.178L20.9761 16.1753L20.9733 20.3107L24.9733 20.3134ZM24.9761 16.1773C24.9762 15.8061 24.9032 15.4383 24.7611 15.0951L21.0653 16.6253C21.0063 16.4827 20.976 16.33 20.9761 16.176L24.9761 16.1773ZM24.7611 15.0951C24.619 14.7519 24.4107 14.4401 24.1479 14.1775L21.3201 17.0066C21.2109 16.8974 21.1244 16.7678 21.0653 16.6253L24.7611 15.0951ZM24.1479 14.1775C23.8851 13.9148 23.5732 13.7066 23.2299 13.5647L21.7016 17.2612C21.559 17.2022 21.4293 17.1157 21.3201 17.0066L24.1479 14.1775ZM23.2299 13.5647C22.8867 13.4227 22.5189 13.3499 22.1476 13.3502L22.1508 17.3502C21.9968 17.3503 21.8441 17.3201 21.7016 17.2612L23.2299 13.5647ZM22.1476 13.3502C21.7764 13.3505 21.4089 13.4239 21.0661 13.5662L22.5992 17.2607C22.4572 17.3196 22.3049 17.3501 22.1508 17.3502L22.1476 13.3502ZM21.0661 13.5662C20.7234 13.7084 20.412 13.9167 20.1497 14.1791L22.9788 17.0068C22.8702 17.1155 22.7412 17.2018 22.5992 17.2607L21.0661 13.5662ZM20.1497 14.1791C19.8875 14.4415 19.6793 14.7529 19.5373 15.0958L23.2325 16.6271C23.1737 16.7691 23.0875 16.8982 22.9788 17.0068L20.1497 14.1791ZM19.5373 15.0958C19.3952 15.4386 19.322 15.8061 19.3218 16.1773L23.3218 16.1787C23.3218 16.3327 23.2914 16.4851 23.2325 16.6271L19.5373 15.0958ZM19.3218 16.1771L19.3199 20.3117L23.3199 20.3136L23.3218 16.179L19.3218 16.1771ZM21.3187 18.3126L17.1837 18.315L17.186 22.315L21.321 22.3126L21.3187 18.3126ZM17.2194 18.3153C16.8441 18.3088 16.4713 18.3771 16.1228 18.5162L17.605 22.2314C17.4606 22.289 17.306 22.3174 17.1503 22.3147L17.2194 18.3153ZM16.1228 18.5162C15.7743 18.6552 15.457 18.8622 15.1893 19.125L17.9917 21.9792C17.8809 22.088 17.7494 22.1738 17.605 22.2314L16.1228 18.5162ZM15.1893 19.125C14.9216 19.3878 14.7089 19.7013 14.5635 20.0472L18.251 21.5972C18.1907 21.7405 18.1026 21.8703 17.9917 21.9792L15.1893 19.125ZM14.5635 20.0472C14.4181 20.3931 14.343 20.7645 14.3426 21.1399L18.3426 21.1441C18.3424 21.2998 18.3112 21.4538 18.251 21.5972L14.5635 20.0472ZM14.3426 21.1399C14.3422 21.5153 14.4166 21.8871 14.5615 22.2336L18.2517 20.69C18.3119 20.834 18.3427 20.9883 18.3426 21.1441L14.3426 21.1399ZM14.5615 22.2336C14.7064 22.5801 14.919 22.8942 15.1868 23.1576L17.9918 20.306C18.1031 20.4155 18.1915 20.5461 18.2517 20.69L14.5615 22.2336ZM15.1868 23.1576C15.4546 23.4211 15.7722 23.6284 16.121 23.7676L17.6036 20.0526C17.7485 20.1104 17.8805 20.1966 17.9918 20.306L15.1868 23.1576ZM16.121 23.7676C16.4698 23.9068 16.8427 23.9751 17.2181 23.9685L17.1482 19.9691C17.3039 19.9664 17.4587 19.9947 17.6036 20.0526L16.121 23.7676ZM17.1845 23.9688L21.3206 23.9661L21.318 19.9661L17.1818 19.9688L17.1845 23.9688ZM19.3193 21.9649L19.317 26.1007L23.317 26.103L23.3193 21.9672L19.3193 21.9649ZM19.3173 26.0669C19.3107 26.4423 19.379 26.8152 19.5182 27.164L23.2332 25.6814C23.2911 25.8263 23.3194 25.9811 23.3167 26.1368L19.3173 26.0669ZM19.5182 27.164C19.6574 27.5128 19.8647 27.8304 20.1282 28.0982L22.9797 25.2932C23.0892 25.4045 23.1754 25.5365 23.2332 25.6814L19.5182 27.164ZM20.1282 28.0982C20.3916 28.366 20.7057 28.5786 21.0522 28.7235L22.5958 25.0333C22.7397 25.0935 22.8703 25.1819 22.9797 25.2932L20.1282 28.0982ZM21.0522 28.7235C21.3987 28.8684 21.7705 28.9428 22.1459 28.9424L22.1417 24.9424C22.2975 24.9423 22.4518 24.9731 22.5958 25.0333L21.0522 28.7235ZM22.1459 28.9424C22.5213 28.942 22.8927 28.8669 23.2386 28.7215L21.6886 25.034C21.832 24.9738 21.986 24.9426 22.1417 24.9424L22.1459 28.9424ZM23.2386 28.7215C23.5845 28.5761 23.898 28.3634 24.1608 28.0957L21.3066 25.2933C21.4155 25.1824 21.5453 25.0943 21.6886 25.034L23.2386 28.7215ZM24.1608 28.0957C24.4236 27.828 24.6306 27.5107 24.7696 27.1622L21.0544 25.68C21.112 25.5356 21.1977 25.4041 21.3066 25.2933L24.1608 28.0957ZM24.7696 27.1622C24.9087 26.8137 24.977 26.4409 24.9705 26.0656L20.9711 26.1347C20.9684 25.979 20.9968 25.8244 21.0544 25.68L24.7696 27.1622ZM24.9708 26.1015L24.9736 21.9676L20.9736 21.965L20.9708 26.0988L24.9708 26.1015ZM24.3878 20.5521L24.3874 20.5517L21.5589 23.3801L21.5593 23.3805L24.3878 20.5521Z" fill="white" mask="url(#path-2-outside-1_1602_12831)"/>
</svg>
