<svg width="27" height="27" viewBox="0 0 27 27" fill="none" xmlns="http://www.w3.org/2000/svg">
<circle cx="13.5" cy="13.5" r="13.5" fill="#DC1720"/>
<path d="M9 8V18.36C9 19.15 9.87 19.63 10.54 19.2L18.68 14.02C18.8225 13.9298 18.9399 13.805 19.0212 13.6573C19.1026 13.5096 19.1452 13.3437 19.1452 13.175C19.1452 13.0064 19.1026 12.8404 19.0212 12.6927C18.9399 12.545 18.8225 12.4202 18.68 12.33L10.54 7.16C10.3892 7.06245 10.2148 7.00741 10.0353 7.0007C9.85579 6.99398 9.6778 7.03584 9.52011 7.12186C9.36241 7.20788 9.23085 7.33486 9.13931 7.48942C9.04777 7.64397 8.99964 7.82037 9 8Z" fill="white"/>
<path d="M9 8V18.36C9 19.15 9.87 19.63 10.54 19.2L18.68 14.02C18.8225 13.9298 18.9399 13.805 19.0212 13.6573C19.1026 13.5096 19.1452 13.3437 19.1452 13.175C19.1452 13.0064 19.1026 12.8404 19.0212 12.6927C18.9399 12.545 18.8225 12.4202 18.68 12.33L10.54 7.16C10.3892 7.06245 10.2148 7.00741 10.0353 7.0007C9.85579 6.99398 9.6778 7.03584 9.52011 7.12186C9.36241 7.20788 9.23085 7.33486 9.13931 7.48942C9.04777 7.64397 8.99964 7.82037 9 8Z" fill="white"/>
</svg>
