<svg width="20" height="20" viewBox="0 0 20 20" fill="none" xmlns="http://www.w3.org/2000/svg">
<path d="M10 20C15.5228 20 20 15.5228 20 10C20 4.47715 15.5228 0 10 0C4.47715 0 0 4.47715 0 10C0 15.5228 4.47715 20 10 20Z" fill="#FFCD61"/>
<path d="M9.84375 2.5C5.7875 2.5 2.5 5.7875 2.5 9.84375C2.5 13.9 5.7875 17.1875 9.84375 17.1875C13.9 17.1875 17.1875 13.9 17.1875 9.84375C17.1875 7.89607 16.4138 6.02815 15.0366 4.65093C13.6593 3.27371 11.7914 2.5 9.84375 2.5ZM9.84375 15.3562C8.38174 15.3562 6.97962 14.7755 5.94582 13.7417C4.91203 12.7079 4.33125 11.3058 4.33125 9.84375C4.33125 8.38174 4.91203 6.97962 5.94582 5.94582C6.97962 4.91203 8.38174 4.33125 9.84375 4.33125C11.3058 4.33125 12.7079 4.91203 13.7417 5.94582C14.7755 6.97962 15.3562 8.38174 15.3562 9.84375C15.3562 11.3058 14.7755 12.7079 13.7417 13.7417C12.7079 14.7755 11.3058 15.3562 9.84375 15.3562ZM8.0125 9.85L9.85 12.6L11.675 9.85L9.85 7.09375L8.0125 9.85Z" fill="white"/>
</svg>
