<svg width="17" height="15" viewBox="0 0 17 15" fill="none" xmlns="http://www.w3.org/2000/svg">
<path d="M15.4418 6.65625H2.31457C2.07418 6.65625 1.84365 6.75174 1.67367 6.92172C1.50369 7.09169 1.4082 7.32223 1.4082 7.56261C1.4082 7.80299 1.50369 8.03353 1.67367 8.20351C1.84365 8.37348 2.07418 8.46897 2.31457 8.46897H15.4418C15.6822 8.46897 15.9127 8.37348 16.0827 8.20351C16.2527 8.03353 16.3482 7.80299 16.3482 7.56261C16.3482 7.32223 16.2527 7.09169 16.0827 6.92172C15.9127 6.75174 15.6822 6.65625 15.4418 6.65625Z" fill="white" stroke="white" stroke-width="0.5"/>
<path d="M2.93923 7.56445L8.20626 2.29869L8.20628 2.29867C8.37641 2.12854 8.47199 1.89779 8.47199 1.65719C8.47199 1.41659 8.37641 1.18584 8.20628 1.01571L8.0313 1.19069L8.20628 1.01571C8.03615 0.845579 7.8054 0.75 7.5648 0.75C7.32419 0.75 7.09345 0.845578 6.92332 1.01571L1.01628 6.92275C1.0162 6.92282 1.01613 6.9229 1.01605 6.92297M2.93923 7.56445L1.01605 6.92297M2.93923 7.56445L8.20626 12.8302L8.20628 12.8302C8.37641 13.0004 8.47199 13.2311 8.47199 13.4717C8.47199 13.7123 8.37641 13.9431 8.20628 14.1132C8.03615 14.2833 7.8054 14.3789 7.5648 14.3789C7.32419 14.3789 7.09345 14.2833 6.92332 14.1132L1.01628 8.20616C1.0162 8.20608 1.01613 8.20601 1.01605 8.20593C0.931753 8.12179 0.864864 8.02185 0.819212 7.91183C0.77352 7.80172 0.75 7.68367 0.75 7.56445C0.75 7.44523 0.77352 7.32719 0.819212 7.21707C0.864864 7.10706 0.931753 7.00712 1.01605 6.92297M2.93923 7.56445L1.01605 6.92297" fill="white" stroke="white" stroke-width="0.5"/>
</svg>
