<svg width="32" height="32" viewBox="0 0 32 32" fill="none" xmlns="http://www.w3.org/2000/svg">
<g id="Icon / bag">
<path id="Vector" d="M8 31C7.175 31 6.469 30.7065 5.882 30.1195C5.295 29.5325 5.001 28.826 5 28V16C5 13.875 5.5565 11.975 6.6695 10.3C7.7825 8.625 9.226 7.375 11 6.55V5.5C11 4.25 11.4375 3.1875 12.3125 2.3125C13.1875 1.4375 14.25 1 15.5 1C16.75 1 17.8125 1.4375 18.6875 2.3125C19.5625 3.1875 20 4.25 20 5.5V6.55C21.775 7.375 23.219 8.625 24.332 10.3C25.445 11.975 26.001 13.875 26 16V28C26 28.825 25.7065 29.5315 25.1195 30.1195C24.5325 30.7075 23.826 31.001 23 31H8ZM20 22C20.425 22 20.7815 21.856 21.0695 21.568C21.3575 21.28 21.501 20.924 21.5 20.5V19C21.5 18.175 21.2065 17.469 20.6195 16.882C20.0325 16.295 19.326 16.001 18.5 16H11C10.575 16 10.219 16.144 9.932 16.432C9.645 16.72 9.501 17.076 9.5 17.5C9.5 17.925 9.644 18.2815 9.932 18.5695C10.22 18.8575 10.576 19.001 11 19H18.5V20.5C18.5 20.925 18.644 21.2815 18.932 21.5695C19.22 21.8575 19.576 22.001 20 22ZM14 5.65C14.275 5.6 14.525 5.5625 14.75 5.5375C14.975 5.5125 15.225 5.5 15.5 5.5C15.775 5.5 16.025 5.5125 16.25 5.5375C16.475 5.5625 16.725 5.6 17 5.65V5.5C17 5.075 16.856 4.719 16.568 4.432C16.28 4.145 15.924 4.001 15.5 4C15.075 4 14.719 4.144 14.432 4.432C14.145 4.72 14.001 5.076 14 5.5V5.65Z" fill="#5B6179"/>
</g>
</svg>
