<svg xmlns="http://www.w3.org/2000/svg" width="28" height="28" fill="none" viewBox="0 0 28 28">
  <path fill="#fff" fill-rule="evenodd" d="M14.101 4.712H5.39a.968.968 0 0 0-.968.968v17.425a.968.968 0 0 0 .968.968h17.425a.968.968 0 0 0 .968-.968v-8.712a1.936 1.936 0 0 1 3.872 0v8.712a4.84 4.84 0 0 1-4.84 4.84H5.389a4.84 4.84 0 0 1-4.84-4.84V5.68A4.84 4.84 0 0 1 5.388.84H14.1a1.936 1.936 0 1 1 0 3.872Zm4.914-3.274A.968.968 0 0 1 19.91.84h6.776a.968.968 0 0 1 .968.968v6.776a.968.968 0 0 1-1.653.686l-2.018-2.022-8.513 8.514a1.936 1.936 0 0 1-2.738-2.738l8.512-8.513-2.02-2.018a.969.969 0 0 1-.209-1.055Z" clip-rule="evenodd"/>
</svg>
