<svg xmlns="http://www.w3.org/2000/svg" width="22" height="21" fill="none" viewBox="0 0 22 21">
  <g clip-path="url(#a)">
    <path fill="#fff" fill-rule="evenodd" d="M15.391 12.508c-.269.27-.614.451-.99.519l-4.467.804a1.862 1.862 0 0 1-2.167-2.135l.745-4.527c.063-.386.246-.742.523-1.017L15.197.016H4.4A2.234 2.234 0 0 0 2.166 2.25v13.283L.715 19.886a.745.745 0 0 0 .887.958l5.868-1.467h11.823a2.234 2.234 0 0 0 2.234-2.234V6.346l-6.136 6.162ZM19.023.13a1.488 1.488 0 0 0-1.63.326l-7.045 7.015-.744 4.527 4.468-.804 7.015-7.044a1.489 1.489 0 0 0 0-2.115L19.508.456a1.49 1.49 0 0 0-.485-.326Z" clip-rule="evenodd"/>
  </g>
  <defs>
    <clipPath id="a">
      <path fill="#fff" d="M.676.016h20.851v20.851H.676z"/>
    </clipPath>
  </defs>
</svg>
