<svg xmlns="http://www.w3.org/2000/svg" width="22" height="22" fill="none" viewBox="0 0 22 22">
  <path fill="#fff" fill-rule="evenodd" d="M16.314 17.702V4.605c0-.793.21-1.606.553-2.12a.93.93 0 1 1 1.549 1.033 1.423 1.423 0 0 0-.152.39 2.82 2.82 0 0 0-.088.697v1.927h1.862a1.49 1.49 0 0 0 1.489-1.49V3.925a3.351 3.351 0 0 0-3.351-3.35H7.378a3.723 3.723 0 0 0-3.723 3.723v13.404a2.234 2.234 0 0 1-2.234 2.234.745.745 0 0 0 0 1.489h11.17a3.724 3.724 0 0 0 3.723-3.723ZM8.387 5.787a.93.93 0 0 1 .93-.93h2.886a.93.93 0 1 1 0 1.86H9.318a.93.93 0 0 1-.931-.93Zm-.993 3.537a.93.93 0 1 0 0 1.862h4.809a.93.93 0 0 0 0-1.862h-4.81Zm-.93 5.399a.93.93 0 0 1 .93-.93h4.809a.93.93 0 1 1 0 1.86h-4.81a.93.93 0 0 1-.93-.93Z" clip-rule="evenodd"/>
</svg>
