<svg xmlns="http://www.w3.org/2000/svg" width="22" height="22" fill="none" viewBox="0 0 22 22">
  <g clip-path="url(#a)">
    <path fill="#5B6179" fill-rule="evenodd" d="M11.103.875c-.295 0-.585.088-.834.254a1.595 1.595 0 0 0-.567.67L7.338 6.774a.764.764 0 0 0-.018.036.691.691 0 0 0-.034.007l-5.207.803c-.287.03-.562.142-.792.325-.237.19-.417.448-.517.742-.1.294-.117.612-.047.915.07.303.221.578.437.792l3.811 3.831.009.009a.047.047 0 0 1 .013.042v.005l-.909 5.537v.001c-.05.3-.018.609.092.891.11.283.294.528.531.707a1.512 1.512 0 0 0 1.65.12h.002l4.69-2.584a.13.13 0 0 1 .107 0l4.691 2.583h.001a1.51 1.51 0 0 0 1.651-.12 1.62 1.62 0 0 0 .531-.706c.11-.282.142-.59.092-.89v-.002l-.908-5.537-.001-.005a.048.048 0 0 1 .013-.042l.009-.009 3.811-3.83a1.63 1.63 0 0 0 .437-.793c.07-.303.054-.621-.046-.915-.1-.294-.28-.552-.518-.742a1.514 1.514 0 0 0-.792-.325l-5.206-.803a.678.678 0 0 0-.035-.007.781.781 0 0 0-.018-.036L12.504 1.8a1.595 1.595 0 0 0-.567-.671 1.504 1.504 0 0 0-.834-.254Z" clip-rule="evenodd"/>
  </g>
  <defs>
    <clipPath id="a">
      <path fill="#fff" d="M.676.465h20.851v20.851H.676z"/>
    </clipPath>
  </defs>
</svg>
