<svg xmlns="http://www.w3.org/2000/svg" width="24" height="23" fill="none" viewBox="0 0 24 23">
  <g clip-path="url(#a)">
    <path fill="#000" fill-rule="evenodd" d="M23.004 11.5c0 6.351-5.149 11.5-11.5 11.5S.004 17.851.004 11.5 5.153 0 11.504 0s11.5 5.149 11.5 11.5ZM16.74 6.263a1.027 1.027 0 0 0-1.452 0l-9.022 9.022a1.027 1.027 0 1 0 1.452 1.452l9.022-9.022a1.027 1.027 0 0 0 0-1.452Zm-8.846-.3a1.929 1.929 0 1 0 0 3.857 1.929 1.929 0 0 0 0-3.858Zm7.218 7.217a1.929 1.929 0 1 0 0 3.858 1.929 1.929 0 0 0 0-3.858Z" clip-rule="evenodd"/>
  </g>
  <defs>
    <clipPath id="a">
      <path fill="#fff" d="M0 0h23.015v23H0z"/>
    </clipPath>
  </defs>
</svg>
