<svg width="39" height="32" viewBox="0 0 39 32" fill="none" xmlns="http://www.w3.org/2000/svg">
<path fill-rule="evenodd" clip-rule="evenodd" d="M12.5476 0.991372C13.4761 0.588141 14.4918 0.378909 15.5204 0.378909L30.2959 0.378906C33.6998 0.378906 36.5966 2.63769 37.1225 5.70189L38.8521 15.7827C39.3764 18.8372 36.7842 21.5969 33.3908 21.5969H24.3153V27.5336C24.3153 29.7939 22.3043 31.6263 19.8235 31.6263C18.1975 31.6263 16.6985 30.8258 15.9042 29.5333L10.1628 20.1907C9.81633 19.6268 9.63438 18.9915 9.63438 18.3453L9.63436 4.64047C9.63436 3.18405 10.5534 1.85736 11.9964 1.23072L12.5476 0.991372ZM2.98029 19.7293C2.24996 19.7293 1.54954 19.4649 1.03311 18.9944C0.516687 18.5239 0.226564 17.8857 0.226564 17.2203L0.226563 4.34595C0.226562 3.68053 0.516687 3.04235 1.03311 2.57184C1.54954 2.1013 2.24996 1.83697 2.98029 1.83697L4.3527 1.83752C5.11567 1.8378 5.73402 2.40143 5.73402 3.09659V18.4707C5.73402 18.8047 5.58834 19.125 5.32907 19.3612C5.06977 19.5973 4.71813 19.7299 4.35151 19.7298L2.98029 19.7293Z" fill="black"/>
</svg>
