<svg width="16" height="15" viewBox="0 0 16 15" fill="none" xmlns="http://www.w3.org/2000/svg">
<path fill-rule="evenodd" clip-rule="evenodd" d="M8.00911 9.51905L13.3973 14.5648C13.6833 14.8325 14.0711 14.9829 14.4754 14.9829C14.8797 14.9829 15.2675 14.8325 15.5535 14.5648C15.8394 14.297 16 13.9339 16 13.5552C16 13.1766 15.8394 12.8135 15.5535 12.5457L10.1632 7.5L15.5524 2.45429C15.6939 2.32171 15.8062 2.16434 15.8827 1.99115C15.9593 1.81796 15.9987 1.63235 15.9986 1.4449C15.9986 1.25746 15.9591 1.07186 15.8825 0.898708C15.8058 0.725551 15.6935 0.568227 15.5519 0.435717C15.4104 0.303207 15.2423 0.198106 15.0574 0.126416C14.8724 0.0547264 14.6742 0.0178507 14.474 0.0178949C14.2739 0.0179391 14.0757 0.054902 13.8908 0.126674C13.7058 0.198445 13.5378 0.30362 13.3963 0.436193L8.00911 5.4819L2.62088 0.436193C2.48035 0.299817 2.31223 0.191015 2.12632 0.116135C1.94041 0.0412547 1.74044 0.00179534 1.53807 5.98518e-05C1.3357 -0.00167564 1.13499 0.0343472 0.947644 0.106027C0.760301 0.177706 0.590079 0.283606 0.446909 0.417549C0.30374 0.551491 0.19049 0.710793 0.113768 0.886159C0.0370464 1.06152 -0.00161105 1.24944 5.14303e-05 1.43895C0.00171391 1.62845 0.0436629 1.81575 0.123451 1.98991C0.203239 2.16408 0.319268 2.32161 0.464769 2.45334L5.85504 7.5L0.465785 12.5467C0.320285 12.6784 0.204256 12.8359 0.124468 13.0101C0.0446794 13.1842 0.00272991 13.3715 0.00106743 13.5611C-0.000595046 13.7506 0.0380624 13.9385 0.114784 14.1138C0.191506 14.2892 0.304756 14.4485 0.447925 14.5825C0.591095 14.7164 0.761317 14.8223 0.94866 14.894C1.136 14.9657 1.33671 15.0017 1.53908 14.9999C1.74145 14.9982 1.94142 14.9587 2.12733 14.8839C2.31324 14.809 2.48137 14.7002 2.62189 14.5638L8.00911 9.52V9.51905Z" fill="white"/>
</svg>
