<svg width="32" height="32" viewBox="0 0 32 32" fill="none" xmlns="http://www.w3.org/2000/svg">
<g id="Icon / friends">
<path id="Vector" d="M22 24.0667V27H1V24.0667C1 24.0667 1 18.2 11.5 18.2C22 18.2 22 24.0667 22 24.0667ZM16.75 10.1334C16.75 9.11812 16.4421 8.12564 15.8652 7.28148C15.2883 6.43731 14.4684 5.77936 13.5091 5.39083C12.5498 5.0023 11.4942 4.90064 10.4758 5.09871C9.45737 5.29678 8.52192 5.78568 7.78769 6.50359C7.05346 7.2215 6.55345 8.13617 6.35088 9.13193C6.1483 10.1277 6.25227 11.1598 6.64963 12.0978C7.04699 13.0358 7.7199 13.8375 8.58326 14.4016C9.44661 14.9656 10.4616 15.2667 11.5 15.2667C12.8924 15.2667 14.2277 14.7259 15.2123 13.7632C16.1969 12.8005 16.75 11.4948 16.75 10.1334ZM21.91 18.2C22.8321 18.8978 23.5867 19.7847 24.1205 20.7982C24.6544 21.8118 24.9546 22.9275 25 24.0667V27H31V24.0667C31 24.0667 31 18.7427 21.91 18.2ZM20.5 5.00008C19.4675 4.99446 18.4578 5.29628 17.605 5.86541C18.5162 7.11022 19.0061 8.60262 19.0061 10.1334C19.0061 11.6642 18.5162 13.1566 17.605 14.4014C18.4578 14.9705 19.4675 15.2723 20.5 15.2667C21.8924 15.2667 23.2277 14.7259 24.2123 13.7632C25.1969 12.8005 25.75 11.4948 25.75 10.1334C25.75 8.77195 25.1969 7.46627 24.2123 6.50359C23.2277 5.54091 21.8924 5.00008 20.5 5.00008Z" fill="#5B6179"/>
</g>
</svg>
