<svg width="53" height="51" viewBox="0 0 53 51" fill="none" xmlns="http://www.w3.org/2000/svg">
<rect width="52.1158" height="51" rx="25.5" fill="#B0C147"/>
<path d="M21.9474 12C22.2021 11.9999 22.4522 12.0709 22.6715 12.2055C22.8907 12.34 23.0711 12.5333 23.1936 12.7649L23.2661 12.927L26.1082 20.2962C26.2227 20.5927 26.2412 20.9197 26.161 21.2281C26.0808 21.5364 25.9061 21.8094 25.6634 22.0059L25.5213 22.1061L23.1425 23.5859L23.232 23.7377C24.3642 25.6021 25.8851 27.1794 27.6827 28.3537L27.8277 28.4451L29.2558 25.9808C29.4141 25.7068 29.6539 25.4936 29.9392 25.3731C30.2244 25.2527 30.5397 25.2317 30.8375 25.3132L31.0009 25.3707L38.1062 28.3183C38.3427 28.4162 38.5496 28.5783 38.7051 28.7875C38.8606 28.9968 38.959 29.2455 38.9901 29.5077L39 29.6861V35.5814C39 38.0236 37.0915 40.0029 34.6516 40C22.4604 39.2321 12.7418 29.1525 12 16.4215C11.9999 15.2937 12.4154 14.2085 13.1614 13.388C13.9074 12.5674 14.9275 12.0735 16.0131 12.0074L16.2632 12H21.9474Z" fill="white"/>
</svg>
