<svg width="51" height="51" viewBox="0 0 51 51" fill="none" xmlns="http://www.w3.org/2000/svg">
<rect x="0.5" y="0.5" width="50" height="50" rx="25" stroke="#B6BAC4"/>
<path d="M13.0757 38.5945V32.7364L30.8807 14.5763C31.1505 14.3236 31.4486 14.1283 31.775 13.9904C32.1015 13.8526 32.4441 13.7837 32.8029 13.7837C33.1626 13.7837 33.511 13.8526 33.8482 13.9904C34.1855 14.1283 34.4777 14.335 34.725 14.6107L36.5797 16.5404C36.8495 16.7932 37.0464 17.0918 37.1705 17.4364C37.2946 17.781 37.3562 18.1256 37.3553 18.4702C37.3553 18.8377 37.2937 19.1883 37.1705 19.5219C37.0473 19.8554 36.8504 20.1596 36.5797 20.4344L18.8084 38.5945H13.0757ZM32.7691 20.3999L34.6576 18.4702L32.7691 16.5404L30.8807 18.4702L32.7691 20.3999Z" fill="#30374D"/>
</svg>
