<svg width="53" height="52" viewBox="0 0 53 52" fill="none" xmlns="http://www.w3.org/2000/svg">
<path fill-rule="evenodd" clip-rule="evenodd" d="M26.7362 34.9519C24.987 34.9519 23.3407 34.3796 21.9695 33.443L20.7012 34.7205C22.1752 35.8068 23.9325 36.5352 25.8341 36.7057V38.5402H24.932C24.434 38.5402 24.0299 38.9421 24.0299 39.4373C24.0299 39.9334 24.434 40.3344 24.932 40.3344H28.5403C29.0383 40.3344 29.4424 39.9334 29.4424 39.4373C29.4424 38.9421 29.0383 38.5402 28.5403 38.5402H27.6382V36.7057C32.0928 36.3065 35.8626 32.9774 36.6591 28.6724H34.8549C34.0331 32.267 30.5989 34.9519 26.7362 34.9519ZM33.0508 26.8782V22.1587L22.8888 31.8256C23.9559 32.6482 25.2802 33.1578 26.7362 33.1578C30.2236 33.1578 33.0508 30.3463 33.0508 26.8782ZM18.6598 28.8024L18.6174 28.6724H16.8132C16.9115 29.207 17.0577 29.7264 17.2444 30.227L18.6598 28.8024ZM36.2775 14.3308L15 34.5904L16.2882 35.8535L37.5738 15.6047L36.2775 14.3308ZM26.7362 11.6279C23.2487 11.6279 20.4215 14.4394 20.4215 17.9075L20.4188 27.1554L32.5898 15.576C31.6579 13.2651 29.3937 11.6279 26.7362 11.6279Z" fill="#5B6179"/>
<rect x="0.5" y="1.18896" width="51.1158" height="49.7167" rx="24.8583" stroke="#B6BAC4"/>
</svg>
