<svg width="53" height="51" viewBox="0 0 53 51" fill="none" xmlns="http://www.w3.org/2000/svg">
<rect x="0.5" y="0.5" width="51.1158" height="50" rx="25" stroke="#B6BAC4"/>
<path fill-rule="evenodd" clip-rule="evenodd" d="M31.8459 26.3355H27.3355V30.8459C27.3355 31.3421 26.9323 31.748 26.4334 31.748C25.9346 31.748 25.5313 31.3421 25.5313 30.8459V26.3355H21.0209C20.522 26.3355 20.1188 25.9296 20.1188 25.4334C20.1188 24.9373 20.522 24.5313 21.0209 24.5313H25.5313V20.0209C25.5313 19.5247 25.9346 19.1188 26.4334 19.1188C26.9323 19.1188 27.3355 19.5247 27.3355 20.0209V24.5313H31.8459C32.3448 24.5313 32.748 24.9373 32.748 25.4334C32.748 25.9296 32.3448 26.3355 31.8459 26.3355ZM26.4334 11C18.4617 11 12 17.4589 12 25.4334C12 33.4079 18.4617 39.8668 26.4334 39.8668C34.4052 39.8668 40.8668 33.4079 40.8668 25.4334C40.8668 17.4589 34.4052 11 26.4334 11Z" fill="#5B6179"/>
</svg>
