<svg width="32" height="32" viewBox="0 0 32 32" fill="none" xmlns="http://www.w3.org/2000/svg">
<g id="Icon / Notif">
<path id="Vector" d="M19.3599 25.4737C19.3601 26.111 19.1149 26.7249 18.6735 27.1923C18.2321 27.6596 17.6271 27.9459 16.9797 27.9937L16.7867 28H14.2135C13.5643 28.0002 12.939 27.7595 12.463 27.3261C11.987 26.8927 11.6954 26.2987 11.6467 25.6632L11.6403 25.4737H19.3599ZM15.5001 4C17.8353 3.99996 20.0792 4.89039 21.7584 6.48346C23.4377 8.07653 24.4211 10.2477 24.5012 12.5389L24.5063 12.8421V17.5966L26.8505 22.1996C26.9528 22.4004 27.004 22.6226 26.9998 22.8471C26.9955 23.0716 26.9358 23.2918 26.8259 23.4887C26.716 23.6857 26.5591 23.8535 26.3687 23.9779C26.1783 24.1023 25.96 24.1795 25.7325 24.2029L25.5845 24.2105H5.41569C5.18688 24.2106 4.96147 24.1562 4.75877 24.052C4.55607 23.9478 4.38213 23.7969 4.25184 23.6122C4.12156 23.4276 4.03882 23.2147 4.01072 22.9917C3.98261 22.7688 4.00998 22.5425 4.09048 22.3322L4.14966 22.1996L6.49386 17.5966V12.8421C6.49386 10.497 7.44273 8.24801 9.13173 6.58979C10.8207 4.93158 13.1115 4 15.5001 4Z" fill="#5B6179"/>
</g>
</svg>
