<svg width="26" height="26" viewBox="0 0 26 26" fill="none" xmlns="http://www.w3.org/2000/svg">
<path fill-rule="evenodd" clip-rule="evenodd" d="M10.8552 13.7303L7.85795 12.7312C5.50473 11.9468 4.32812 11.5546 4.32812 10.8338C4.32812 10.1131 5.50473 9.72088 7.85794 8.93647L7.85795 8.93647L17.8711 5.59875C19.5269 5.04682 20.3548 4.77085 20.7918 5.20787C21.2288 5.64488 20.9529 6.47278 20.4009 8.12857L17.0632 18.1417C16.2788 20.495 15.8866 21.6716 15.1658 21.6716C14.4451 21.6716 14.0529 20.495 13.2685 18.1417L12.2694 15.1445L16.9563 10.4576C17.3468 10.0671 17.3468 9.43392 16.9563 9.0434C16.5658 8.65287 15.9326 8.65287 15.5421 9.0434L10.8552 13.7303Z" fill="white"/>
</svg>
