<svg width="12" height="12" viewBox="0 0 12 12" fill="none" xmlns="http://www.w3.org/2000/svg">
<path d="M4.11765 0.460938C4.22311 0.460908 4.32664 0.489074 4.41739 0.542485C4.50815 0.595897 4.5828 0.67259 4.63353 0.764536L4.66353 0.828882L5.84 3.75372C5.88738 3.87139 5.89505 4.00118 5.86184 4.12356C5.82864 4.24594 5.75636 4.35428 5.65588 4.43228L5.59706 4.47206L4.61235 5.05937L4.64941 5.11962C5.11809 5.8596 5.74765 6.48566 6.49176 6.95173L6.55176 6.988L7.14294 6.00994C7.20846 5.90118 7.30773 5.81654 7.42581 5.76874C7.54388 5.72095 7.67438 5.7126 7.79765 5.74495L7.86529 5.76776L10.8065 6.9377C10.9044 6.97655 10.99 7.04087 11.0544 7.12392C11.1188 7.20696 11.1595 7.30569 11.1724 7.40976L11.1765 7.48055V9.82041C11.1765 10.7897 10.3865 11.5753 9.37647 11.5741C4.33 11.2694 0.307059 7.26879 2.74144e-09 2.21584C-2.50716e-05 1.76822 0.171956 1.3375 0.480755 1.01182C0.789554 0.686146 1.21183 0.490123 1.66118 0.463862L1.76471 0.460938H4.11765Z" fill="#DC1720"/>
</svg>
