<svg width="53" height="51" viewBox="0 0 53 51" fill="none" xmlns="http://www.w3.org/2000/svg">
<rect x="0.5" y="0.5" width="51.1158" height="50" rx="25" stroke="#B6BAC4"/>
<path fill-rule="evenodd" clip-rule="evenodd" d="M29.7742 12V14.053C35.2674 15.184 39.129 19.973 39.129 25.985C39.129 31.963 35.3871 36.594 29.7742 37.917V39.971C36.113 38.979 41 33.128 41 25.985C41 18.842 36.113 12.991 29.7742 12ZM25.0968 13.985L18.5484 18.652V33.318L25.0968 37.985C26.1295 37.985 26.9677 37.089 26.9677 35.985V15.985C26.9677 14.881 26.1295 13.985 25.0968 13.985ZM35.3871 25.985C35.3871 22.462 32.9436 19.575 29.7742 19.086V21.086C31.909 21.549 33.5161 23.566 33.5161 25.985C33.5161 28.404 31.909 30.421 29.7742 30.884V32.884C32.9436 32.395 35.3871 29.508 35.3871 25.985ZM12 21.985V29.985C12 31.089 12.8382 31.985 13.871 31.985H16.6774V19.985H13.871C12.8382 19.985 12 20.881 12 21.985Z" fill="#5B6179"/>
</svg>
