<svg width="28" height="27" viewBox="0 0 28 27" fill="none" xmlns="http://www.w3.org/2000/svg">
<path d="M27.3004 12.2987L21.6667 17.2193L23.3543 24.5452C23.4436 24.9282 23.4182 25.329 23.2811 25.6975C23.144 26.0661 22.9014 26.386 22.5836 26.6174C22.2658 26.8487 21.887 26.9811 21.4944 26.9981C21.1018 27.0151 20.7129 26.9159 20.3763 26.7129L13.9919 22.8375L7.62116 26.7129C7.2846 26.9159 6.89571 27.0151 6.50313 26.9981C6.11054 26.9811 5.73167 26.8487 5.41388 26.6174C5.0961 26.386 4.8535 26.0661 4.71642 25.6975C4.57934 25.329 4.55386 24.9282 4.64316 24.5452L6.32828 17.2268L0.693312 12.2987C0.395273 12.0415 0.17976 11.7019 0.0737981 11.3225C-0.0321635 10.9432 -0.0238566 10.541 0.0976771 10.1664C0.219211 9.79171 0.448561 9.46133 0.756967 9.21662C1.06537 8.97192 1.43911 8.82378 1.8313 8.7908L9.25881 8.14697L12.1581 1.22615C12.3095 0.862999 12.5649 0.552801 12.8921 0.334613C13.2193 0.116424 13.6037 0 13.9969 0C14.3901 0 14.7745 0.116424 15.1017 0.334613C15.4289 0.552801 15.6842 0.862999 15.8356 1.22615L18.7437 8.14697L26.1687 8.7908C26.5609 8.82378 26.9346 8.97192 27.243 9.21662C27.5514 9.46133 27.7808 9.79171 27.9023 10.1664C28.0239 10.541 28.0322 10.9432 27.9262 11.3225C27.8202 11.7019 27.6047 12.0415 27.3067 12.2987H27.3004Z" fill="#FFCD61"/>
</svg>
