<svg xmlns="http://www.w3.org/2000/svg" width="24" height="21" fill="none" viewBox="0 0 24 21">
  <g clip-path="url(#a)">
    <path fill="#000" fill-rule="evenodd" d="M11.513.406c-.326 0-.646.087-.92.25-.272.161-.489.39-.626.661l-2.61 4.898a.737.737 0 0 0-.02.035.836.836 0 0 0-.038.006l-5.749.792c-.317.028-.62.14-.874.32a1.6 1.6 0 0 0-.572.73c-.11.29-.128.603-.051.902.077.297.244.568.483.78l4.207 3.772.01.008c.006.006.01.012.013.02a.043.043 0 0 1 .002.022l-.001.005-1.003 5.453a1.5 1.5 0 0 0 .101.878c.122.279.325.52.587.696a1.838 1.838 0 0 0 1.822.119l.001-.001 5.18-2.544a.157.157 0 0 1 .117 0l5.179 2.544a1.834 1.834 0 0 0 1.823-.118c.262-.176.465-.417.587-.696.121-.278.156-.581.101-.877v-.001l-1.003-5.453v-.005a.043.043 0 0 1 .014-.042l.01-.008 4.208-3.773c.238-.21.406-.482.482-.78.077-.298.06-.611-.051-.901a1.6 1.6 0 0 0-.572-.73 1.787 1.787 0 0 0-.874-.32l-5.748-.792a.819.819 0 0 0-.038-.006.796.796 0 0 0-.02-.035l-2.61-4.898c-.138-.27-.355-.5-.626-.66a1.806 1.806 0 0 0-.92-.25Z" clip-rule="evenodd"/>
  </g>
  <defs>
    <clipPath id="a">
      <path fill="#fff" d="M0 0h23.015v20.533H0z"/>
    </clipPath>
  </defs>
</svg>
