<svg xmlns="http://www.w3.org/2000/svg" width="26" height="27" fill="none" viewBox="0 0 26 27">
  <path fill="#fff" fill-rule="evenodd" d="M0 5.307A4.643 4.643 0 0 1 4.643.664h16.714A4.643 4.643 0 0 1 26 5.307V22.02a4.643 4.643 0 0 1-4.643 4.643H13a1.857 1.857 0 0 1 0-3.714h8.357a.929.929 0 0 0 .929-.929V5.307a.929.929 0 0 0-.929-.929H4.643a.929.929 0 0 0-.929.929v8.357a1.857 1.857 0 0 1-3.714 0V5.307ZM8.286 26.09a.928.928 0 0 1-.857.573h-6.5A.929.929 0 0 1 0 25.735v-6.5a.929.929 0 0 1 1.585-.656l1.937 1.937 8.165-8.165a1.857 1.857 0 1 1 2.626 2.626l-8.165 8.165 1.937 1.937a.929.929 0 0 1 .201 1.012Z" clip-rule="evenodd"/>
</svg>
