<svg width="40" height="32" viewBox="0 0 40 32" fill="none" xmlns="http://www.w3.org/2000/svg">
<path fill-rule="evenodd" clip-rule="evenodd" d="M13.2468 31.1897C14.1753 31.5929 15.191 31.8021 16.2196 31.8021H30.9951C34.399 31.8021 37.2958 29.5434 37.8217 26.479L39.5513 16.3983C40.0756 13.3438 37.4834 10.5841 34.09 10.5841H25.0146V4.64729C25.0146 2.38701 23.0035 0.554688 20.5227 0.554688C18.8967 0.554688 17.3977 1.35526 16.6034 2.64786L10.862 11.9904C10.5155 12.5542 10.3336 13.1896 10.3336 13.8357L10.3336 27.5404C10.3336 28.9969 11.2526 30.3237 12.6956 30.9502L13.2468 31.1897ZM3.67951 12.4518C2.94918 12.4518 2.24875 12.7161 1.73233 13.1866C1.2159 13.6571 0.925781 14.2953 0.925781 14.9607L0.925782 27.835C0.925783 28.5006 1.2159 29.1387 1.73233 29.6091C2.24875 30.0797 2.94917 30.3441 3.67951 30.3441L5.05194 30.3436C5.81489 30.3431 6.43324 29.7796 6.43324 29.0845V13.7103C6.43324 13.3763 6.28756 13.0559 6.02829 12.8198C5.76899 12.5837 5.41735 12.4511 5.05073 12.4512L3.67951 12.4518Z" fill="#B0C147"/>
</svg>
